<svg width="46" height="46" viewBox="0 0 46 46" fill="none" xmlns="http://www.w3.org/2000/svg">
<g clip-path="url(#clip0_1624_4041)">
<path d="M21.209 42.5683C32.7854 42.5683 42.1699 33.1838 42.1699 21.6074C42.1699 10.031 32.7854 0.646423 21.209 0.646423C9.63258 0.646423 0.248047 10.031 0.248047 21.6074C0.248047 33.1838 9.63258 42.5683 21.209 42.5683Z" fill="#627EEA"/>
<path d="M21.123 5.88666V17.5069L30.9446 21.8956L21.123 5.88666Z" fill="white" fill-opacity="0.602"/>
<path d="M21.1231 5.88666L11.3003 21.8956L21.1231 17.5069V5.88666Z" fill="white"/>
<path d="M21.123 29.4261V37.3218L30.9511 23.7247L21.123 29.4261Z" fill="white" fill-opacity="0.602"/>
<path d="M21.1231 37.3218V29.4247L11.3003 23.7247L21.1231 37.3218Z" fill="white"/>
<path d="M21.123 27.5983L30.9446 21.8957L21.123 17.5096V27.5983Z" fill="white" fill-opacity="0.2"/>
<path d="M11.3003 21.8957L21.1231 27.5983V17.5096L11.3003 21.8957Z" fill="white" fill-opacity="0.602"/>
</g>
<circle cx="35.5007" cy="35.8989" r="8.57493" fill="#D9D9D9" stroke="white" stroke-width="1.90554"/>
<g clip-path="url(#clip1_1624_4041)">
<path d="M35.5006 43.5211C39.7102 43.5211 43.1227 40.1086 43.1227 35.899C43.1227 31.6894 39.7102 28.2768 35.5006 28.2768C31.291 28.2768 27.8784 31.6894 27.8784 35.899C27.8784 40.1086 31.291 43.5211 35.5006 43.5211Z" fill="#627EEA"/>
<path d="M35.4697 30.1823V34.4078L39.0412 36.0037L35.4697 30.1823Z" fill="white" fill-opacity="0.602"/>
<path d="M35.4699 30.1823L31.8979 36.0037L35.4699 34.4078V30.1823Z" fill="white"/>
<path d="M35.4697 38.7421V41.6132L39.0436 36.6688L35.4697 38.7421Z" fill="white" fill-opacity="0.602"/>
<path d="M35.4699 41.6132V38.7416L31.8979 36.6688L35.4699 41.6132Z" fill="white"/>
<path d="M35.4697 38.0775L39.0412 36.0038L35.4697 34.4088V38.0775Z" fill="white" fill-opacity="0.2"/>
<path d="M31.8979 36.0038L35.4699 38.0775V34.4088L31.8979 36.0038Z" fill="white" fill-opacity="0.602"/>
</g>
<defs>
<clipPath id="clip0_1624_4041">
<rect width="41.9219" height="41.9219" fill="white" transform="translate(0.248047 0.646423)"/>
</clipPath>
<clipPath id="clip1_1624_4041">
<rect x="27.8784" y="28.2768" width="15.2443" height="15.2443" rx="7.62216" fill="white"/>
</clipPath>
</defs>
</svg>
