<svg width="20" height="26" viewBox="0 0 20 26" fill="none" xmlns="http://www.w3.org/2000/svg">
<path d="M17.1428 5.71456V2.85742H14.2856V5.71456H17.1428Z" fill="#F3F0E7"/>
<path d="M17.1429 5.71429V8.57143C15.2381 8.57143 13.3333 8.57143 11.4286 8.57143C11.4286 6.66667 11.4286 4.7619 11.4286 2.85714H14.2857V0C9.52381 0 4.7619 0 0 0C0 8.57143 0 17.1429 0 25.7143C6.66667 25.7143 13.3333 25.7143 20 25.7143C20 19.0476 20 12.381 20 5.71429H17.1429ZM17.1429 14.2857C17.1429 17.1429 17.1429 20 17.1429 22.8571C12.381 22.8571 7.61905 22.8571 2.85714 22.8571C2.85714 16.1905 2.85714 9.52381 2.85714 2.85714C4.7619 2.85714 6.66667 2.85714 8.57143 2.85714C8.57143 5.71429 8.57143 8.57143 8.57143 11.4286C11.4286 11.4286 14.2857 11.4286 17.1429 11.4286V14.2857Z" fill="#F3F0E7"/>
</svg>
